<svg width="45" height="44" viewBox="0 0 45 44" fill="none" xmlns="http://www.w3.org/2000/svg">
<path fill-rule="evenodd" clip-rule="evenodd" d="M25.2982 10.6162C24.13 8.33154 20.7547 8.33154 19.5865 10.6162L16.8284 16.0105C16.7621 16.1401 16.634 16.2299 16.4858 16.2507L10.3184 17.1157C7.70621 17.4821 6.66318 20.5805 8.55335 22.3589L13.0162 26.5578C13.1234 26.6587 13.1723 26.804 13.147 26.9465L12.0935 32.8754C11.6473 35.3865 14.3779 37.3014 16.7143 36.1158L22.2306 33.3166C22.3632 33.2493 22.5215 33.2493 22.6541 33.3166L28.1704 36.1158C30.5068 37.3014 33.2374 35.3865 32.7912 32.8754L31.7377 26.9465C31.7124 26.804 31.7613 26.6587 31.8685 26.5578L36.3314 22.3589C38.2215 20.5805 37.1785 17.4821 34.5664 17.1157L28.3989 16.2507C28.2507 16.2299 28.1226 16.1401 28.0563 16.0105L25.2982 10.6162Z" fill="white"/>
</svg>
